<svg xmlns="http://www.w3.org/2000/svg" version="1.1" xmlns:xlink="http://www.w3.org/1999/xlink" xmlns:svgjs="http://svgjs.dev/svgjs" width="2000" height="1500" viewBox="0 0 2000 1500"><rect width="2000" height="1500" fill="#000000"></rect><g transform="matrix(0.75,0,0,0.75,249.0597533217832,189.82379032258063)"><svg viewBox="0 0 333 248" data-background-color="#ffffff" preserveAspectRatio="xMidYMid meet" height="1489" width="2000" xmlns="http://www.w3.org/2000/svg" xmlns:xlink="http://www.w3.org/1999/xlink"><g id="tight-bounds" transform="matrix(1,0,0,1,0.20873476256412005,0.4000000000000057)"><svg viewBox="0 0 332.58253047487176 247.2" height="247.2" width="332.58253047487176"><g><svg viewBox="0 0 397.4975999999999 295.449693583422" height="247.2" width="332.58253047487176"><g><rect width="397.4975999999999" height="5.368374413289308" x="0" y="166.04702295542995" fill="#ffffff" opacity="1" stroke-width="0" stroke="transparent" fill-opacity="1" class="rect-yte-0" data-fill-palette-color="secondary" rx="1%" id="yte-0" data-palette-color="#e6b17e"></rect></g><g transform="matrix(1,0,0,1,0.9887999999999693,185.46873352916248)"><svg viewBox="0 0 395.52 109.98096005425955" height="109.98096005425955" width="395.52"><g id="textblocktransform"><svg viewBox="0 0 395.52 109.98096005425955" height="109.98096005425955" width="395.52" id="textblock"><g><svg viewBox="0 0 395.52 59.52886426592798" height="59.52886426592798" width="395.52"><g transform="matrix(1,0,0,1,0,0)"><svg width="395.52" viewBox="3.9 -36.75 324.87 48.900000000000006" height="59.52886426592798" data-palette-color="#4d331f"><path d="M28.7 0L22.25 0 14.85-13.9Q12.55-13.8 10.75-13.8L10.75-13.8 9.35-13.8 9.35 0 3.9 0 3.9-36.75 12.25-36.75Q18.6-36.75 22.7-34.13 26.8-31.5 26.8-25.6L26.8-25.6Q26.8-21.9 25.08-19.23 23.35-16.55 19.95-15.1L19.95-15.1 28.7 0ZM9.35-18.35L12.9-18.35Q17.8-18.35 19.63-20.48 21.45-22.6 21.45-25.55L21.45-25.55Q21.45-32.1 12.7-32.1L12.7-32.1 9.35-32.1 9.35-18.35ZM44.9 0.5Q40.8 0.5 38.05-1.13 35.3-2.75 34-5.48 32.7-8.2 32.7-11.45L32.7-11.45Q32.7-15.1 34.22-17.85 35.75-20.6 38.45-22.08 41.15-23.55 44.55-23.55L44.55-23.55Q49.85-23.55 52.42-20.63 55-17.7 55-12.4L55-12.4Q55-11.05 54.85-9.6L54.85-9.6 38.35-9.6Q38.9-6.55 40.52-5.2 42.15-3.85 45.05-3.85L45.05-3.85Q47.45-3.85 49-4.25 50.55-4.65 51.85-5.35L51.85-5.35 53.5-1.5Q52.25-0.7 50.1-0.1 47.95 0.5 44.9 0.5L44.9 0.5ZM38.35-13.35L49.75-13.35Q49.8-16.45 48.4-17.73 47-19 44.4-19L44.4-19Q39.15-19 38.35-13.35L38.35-13.35ZM71.34 0.5Q67.94 0.5 65.22-0.98 62.49-2.45 60.89-5.23 59.3-8 59.3-11.75L59.3-11.75Q59.3-15.3 60.77-17.98 62.24-20.65 64.92-22.1 67.59-23.55 71.09-23.55L71.09-23.55Q73.75-23.55 75.67-22.88 77.59-22.2 78.69-21.2L78.69-21.2 76.3-16.85Q74.19-18.95 71.55-18.95L71.55-18.95Q68.34-18.95 66.67-17 65-15.05 65-11.8L65-11.8Q65-8.1 66.72-6.05 68.44-4 71.55-4L71.55-4Q73.09-4 74.57-4.45 76.05-4.9 76.84-5.5L76.84-5.5 78.8-1.7Q77.69-0.85 75.72-0.18 73.75 0.5 71.34 0.5L71.34 0.5ZM84.34 0L84.34-22.95 89.94-22.95 89.94 0 84.34 0ZM87.09-27.25Q85.54-27.25 84.49-28.3 83.44-29.35 83.44-30.9L83.44-30.9Q83.44-32.3 84.49-33.3 85.54-34.3 87.09-34.3L87.09-34.3Q88.59-34.3 89.64-33.3 90.69-32.3 90.69-30.9L90.69-30.9Q90.69-29.35 89.67-28.3 88.64-27.25 87.09-27.25L87.09-27.25ZM97.54 12.15L97.54-22.95 102.74-22.95 102.74-18.7Q105.49-23.55 111.34-23.55L111.34-23.55Q116.19-23.55 119.19-20.48 122.19-17.4 122.19-11.6L122.19-11.6Q122.19-8 120.72-5.25 119.24-2.5 116.72-1 114.19 0.5 111.09 0.5L111.09 0.5Q108.19 0.5 106.06-0.53 103.94-1.55 102.74-3.45L102.74-3.45 102.79 12.15 97.54 12.15ZM109.84-4.05Q113.09-4.05 114.84-6.13 116.59-8.2 116.59-11.45L116.59-11.45Q116.59-14.85 114.87-16.88 113.14-18.9 109.84-18.9L109.84-18.9Q108.04-18.9 106.47-18.03 104.89-17.15 103.97-15.53 103.04-13.9 103.04-11.75L103.04-11.75 103.04-11.4Q103.04-9.25 103.97-7.58 104.89-5.9 106.44-4.98 107.99-4.05 109.84-4.05L109.84-4.05ZM138.79 0.5Q134.69 0.5 131.94-1.13 129.19-2.75 127.89-5.48 126.59-8.2 126.59-11.45L126.59-11.45Q126.59-15.1 128.11-17.85 129.64-20.6 132.34-22.08 135.04-23.55 138.44-23.55L138.44-23.55Q143.74-23.55 146.31-20.63 148.89-17.7 148.89-12.4L148.89-12.4Q148.89-11.05 148.74-9.6L148.74-9.6 132.24-9.6Q132.79-6.55 134.41-5.2 136.04-3.85 138.94-3.85L138.94-3.85Q141.34-3.85 142.89-4.25 144.44-4.65 145.74-5.35L145.74-5.35 147.39-1.5Q146.14-0.7 143.99-0.1 141.84 0.5 138.79 0.5L138.79 0.5ZM132.24-13.35L143.64-13.35Q143.69-16.45 142.29-17.73 140.89-19 138.29-19L138.29-19Q133.04-19 132.24-13.35L132.24-13.35ZM167.08 0L167.08-36.75 172.68-36.75 172.68-21.75 185.63-21.75 185.63-36.75 191.23-36.75 191.23 0 185.63 0 185.63-17.05 172.68-17.05 172.68 0 167.08 0ZM209.48 0.5Q205.38 0.5 202.63-1.13 199.88-2.75 198.58-5.48 197.28-8.2 197.28-11.45L197.28-11.45Q197.28-15.1 198.81-17.85 200.33-20.6 203.03-22.08 205.73-23.55 209.13-23.55L209.13-23.55Q214.43-23.55 217.01-20.63 219.58-17.7 219.58-12.4L219.58-12.4Q219.58-11.05 219.43-9.6L219.43-9.6 202.93-9.6Q203.48-6.55 205.11-5.2 206.73-3.85 209.63-3.85L209.63-3.85Q212.03-3.85 213.58-4.25 215.13-4.65 216.43-5.35L216.43-5.35 218.08-1.5Q216.83-0.7 214.68-0.1 212.53 0.5 209.48 0.5L209.48 0.5ZM202.93-13.35L214.33-13.35Q214.38-16.45 212.98-17.73 211.58-19 208.98-19L208.98-19Q203.73-19 202.93-13.35L202.93-13.35ZM235.38 0.5Q232.28 0.5 229.65-0.98 227.03-2.45 225.45-5.18 223.88-7.9 223.88-11.55L223.88-11.55Q223.88-15.15 225.25-17.85 226.63-20.55 229.18-22.05 231.73-23.55 235.18-23.55L235.18-23.55Q237.18-23.55 238.93-22.85 240.68-22.15 241.88-21.13 243.08-20.1 243.48-19.1L243.48-19.1 243.58-22.95 248.73-22.95 248.73 0 243.63 0 243.53-4.05Q242.68-2.25 240.43-0.88 238.18 0.5 235.38 0.5L235.38 0.5ZM236.28-4Q239.13-4 241.08-5.98 243.03-7.95 243.03-11.15L243.03-11.15 243.03-11.5Q243.03-13.65 242.13-15.35 241.23-17.05 239.68-18 238.13-18.95 236.28-18.95L236.28-18.95Q233.08-18.95 231.33-16.88 229.58-14.8 229.58-11.5L229.58-11.5Q229.58-8.15 231.3-6.08 233.03-4 236.28-4L236.28-4ZM264.43 0L252.33-22.95 258.48-22.95 263.43-12.6 265.03-8.45 266.63-12.6 271.53-22.95 277.53-22.95 265.48 0 264.43 0ZM291.22 0.5Q287.12 0.5 284.37-1.13 281.62-2.75 280.32-5.48 279.02-8.2 279.02-11.45L279.02-11.45Q279.02-15.1 280.55-17.85 282.07-20.6 284.77-22.08 287.47-23.55 290.87-23.55L290.87-23.55Q296.17-23.55 298.75-20.63 301.32-17.7 301.32-12.4L301.32-12.4Q301.32-11.05 301.17-9.6L301.17-9.6 284.67-9.6Q285.22-6.55 286.85-5.2 288.47-3.85 291.37-3.85L291.37-3.85Q293.77-3.85 295.32-4.25 296.87-4.65 298.17-5.35L298.17-5.35 299.82-1.5Q298.57-0.7 296.42-0.1 294.27 0.5 291.22 0.5L291.22 0.5ZM284.67-13.35L296.07-13.35Q296.12-16.45 294.72-17.73 293.32-19 290.72-19L290.72-19Q285.47-19 284.67-13.35L284.67-13.35ZM306.97 0L306.97-22.95 312.27-22.95 312.32-18.75Q313.27-20.85 315.32-22.2 317.37-23.55 320.12-23.55L320.12-23.55Q323.67-23.55 325.57-22.08 327.47-20.6 328.12-17.95 328.77-15.3 328.77-11.05L328.77-11.05 328.77 0 323.37 0 323.37-10.9Q323.37-15.25 322.52-17.18 321.67-19.1 319.02-19.1L319.02-19.1Q317.52-19.1 315.97-18.18 314.42-17.25 313.4-15.5 312.37-13.75 312.37-11.4L312.37-11.4 312.37 0 306.97 0Z" opacity="1" transform="matrix(1,0,0,1,0,0)" fill="#ffffff" class="wordmark-text-0" data-fill-palette-color="primary" id="text-0"></path></svg></g></svg></g><g transform="matrix(1,0,0,1,0,73.58220042637119)"><svg viewBox="0 0 395.52 36.39875962788837" height="36.39875962788837" width="395.52"><g transform="matrix(1,0,0,1,0,0)"><svg width="395.52" viewBox="2.15 -36 499.8 46" height="36.39875962788837" data-palette-color="#e6b17e"><path d="M19.6 0.35L19.6 0.35Q15.9 0.35 12.73-0.95 9.55-2.25 7.18-4.63 4.8-7 3.48-10.28 2.15-13.55 2.15-17.5L2.15-17.5Q2.15-21.45 3.48-24.73 4.8-28 7.18-30.38 9.55-32.75 12.73-34.05 15.9-35.35 19.6-35.35L19.6-35.35Q23.25-35.35 26.43-34.05 29.6-32.75 31.95-30.38 34.3-28 35.63-24.73 36.95-21.45 36.95-17.5L36.95-17.5Q36.95-13.55 35.63-10.28 34.3-7 31.95-4.63 29.6-2.25 26.43-0.95 23.25 0.35 19.6 0.35ZM19.6-3.15L19.6-3.15Q23.35-3.15 26.35-4.9 29.35-6.65 31.1-9.88 32.85-13.1 32.85-17.5L32.85-17.5Q32.85-21.95 31.1-25.18 29.35-28.4 26.35-30.13 23.35-31.85 19.6-31.85L19.6-31.85Q15.8-31.85 12.78-30.13 9.75-28.4 8-25.18 6.25-21.95 6.25-17.5L6.25-17.5Q6.25-13.1 8-9.88 9.75-6.65 12.78-4.9 15.8-3.15 19.6-3.15ZM63.35-25L63.35 0 59.95 0 59.7-3.6Q58.55-1.7 56.6-0.68 54.65 0.35 52.05 0.35L52.05 0.35Q49.15 0.35 47-0.85 44.85-2.05 43.67-4.45 42.5-6.85 42.5-10.5L42.5-10.5 42.5-25 46.2-25 46.2-10.9Q46.2-7.05 47.87-5.08 49.55-3.1 52.7-3.1L52.7-3.1Q55.9-3.1 57.77-5.18 59.65-7.25 59.65-11.45L59.65-11.45 59.65-25 63.35-25ZM71 0L71-25 74.45-25 74.65-21.35Q75.65-22.7 77.07-23.65 78.5-24.6 80.22-24.98 81.95-25.35 83.9-25L83.9-25 83.9-21.25Q81.8-21.65 80.12-21.25 78.45-20.85 77.25-19.75 76.05-18.65 75.4-16.98 74.75-15.3 74.75-13.1L74.75-13.1 74.75 0 71 0ZM123.59-24.65L123.59-24.65Q123.59-27.8 121.74-29.65 119.89-31.5 115.69-31.5L115.69-31.5 107.39-31.5 107.39-17.8 115.74-17.8Q118.49-17.8 120.22-18.65 121.94-19.5 122.77-21.05 123.59-22.6 123.59-24.65ZM103.39-35L115.69-35Q119.79-35 122.42-33.6 125.04-32.2 126.34-29.88 127.64-27.55 127.64-24.65L127.64-24.65Q127.64-22.6 126.97-20.75 126.29-18.9 124.84-17.45 123.39-16 121.14-15.15 118.89-14.3 115.74-14.3L115.74-14.3 107.39-14.3 107.39 0 103.39 0 103.39-35ZM114.29-15.8L118.59-15.8 128.29 0 123.74 0 114.29-15.8ZM144.74 0.35L144.74 0.35Q141.24 0.35 138.51-1.35 135.79-3.05 134.24-6 132.69-8.95 132.69-12.75L132.69-12.75Q132.69-16.4 134.24-19.25 135.79-22.1 138.49-23.73 141.19-25.35 144.64-25.35L144.64-25.35Q148.04-25.35 150.71-23.85 153.39-22.35 154.89-19.7 156.39-17.05 156.29-13.65L156.29-13.65Q156.29-13.1 156.24-12.5 156.19-11.9 156.14-11.2L156.14-11.2 136.79-11.2Q136.89-8.85 137.94-7.05 138.99-5.25 140.71-4.23 142.44-3.2 144.64-3.2L144.64-3.2Q147.54-3.2 149.56-4.3 151.59-5.4 152.49-7.45L152.49-7.45 155.74-6.15Q154.24-3 151.39-1.33 148.54 0.35 144.74 0.35ZM136.84-14.45L152.19-14.45Q152.24-16.6 151.26-18.25 150.29-19.9 148.54-20.85 146.79-21.8 144.49-21.8L144.49-21.8Q142.49-21.8 140.84-20.85 139.19-19.9 138.11-18.23 137.04-16.55 136.84-14.45L136.84-14.45ZM173.09 0.35L173.09 0.35Q169.44 0.35 166.69-1.25 163.94-2.85 162.41-5.73 160.89-8.6 160.89-12.4L160.89-12.4Q160.89-16.25 162.41-19.18 163.94-22.1 166.69-23.73 169.44-25.35 173.09-25.35L173.09-25.35Q176.94-25.35 179.84-23.58 182.74-21.8 184.04-18.65L184.04-18.65 180.59-17.45Q179.84-19.45 177.86-20.63 175.89-21.8 173.29-21.8L173.29-21.8Q170.74-21.8 168.86-20.65 166.99-19.5 165.96-17.4 164.94-15.3 164.94-12.45L164.94-12.45Q164.94-8.25 167.19-5.73 169.44-3.2 173.19-3.2L173.19-3.2Q175.74-3.2 177.74-4.35 179.74-5.5 180.69-7.45L180.69-7.45 184.09-6.25Q182.74-3.15 179.84-1.4 176.94 0.35 173.09 0.35ZM190.98 0L190.98-25 194.68-25 194.68 0 190.98 0ZM192.88-30L192.88-30Q191.73-30 190.98-30.75 190.23-31.5 190.23-32.6L190.23-32.6Q190.23-33.75 190.98-34.5 191.73-35.25 192.88-35.25L192.88-35.25Q193.93-35.25 194.71-34.5 195.48-33.75 195.48-32.6L195.48-32.6Q195.48-31.5 194.71-30.75 193.93-30 192.88-30ZM206.48-5.05L206.48-5.05 206.88-5.1 206.88 10 203.13 10 203.13-25 206.58-25 206.83-20.35Q207.98-22.45 210.23-23.9 212.48-25.35 215.88-25.35L215.88-25.35Q219.13-25.35 221.73-23.78 224.33-22.2 225.83-19.33 227.33-16.45 227.33-12.5L227.33-12.5Q227.33-8.6 225.91-5.73 224.48-2.85 221.91-1.25 219.33 0.35 215.88 0.35L215.88 0.35Q212.28 0.35 209.93-1.2 207.58-2.75 206.48-5.05ZM223.28-12.5L223.28-12.5Q223.28-16.8 221.06-19.33 218.83-21.85 215.08-21.85L215.08-21.85Q212.73-21.85 210.86-20.75 208.98-19.65 207.93-17.55 206.88-15.45 206.88-12.5L206.88-12.5Q206.88-9.6 207.93-7.5 208.98-5.4 210.86-4.28 212.73-3.15 215.08-3.15L215.08-3.15Q218.83-3.15 221.06-5.68 223.28-8.2 223.28-12.5ZM243.93 0.35L243.93 0.35Q240.43 0.35 237.7-1.35 234.98-3.05 233.43-6 231.88-8.95 231.88-12.75L231.88-12.75Q231.88-16.4 233.43-19.25 234.98-22.1 237.68-23.73 240.38-25.35 243.83-25.35L243.83-25.35Q247.23-25.35 249.9-23.85 252.58-22.35 254.08-19.7 255.58-17.05 255.48-13.65L255.48-13.65Q255.48-13.1 255.43-12.5 255.38-11.9 255.33-11.2L255.33-11.2 235.98-11.2Q236.08-8.85 237.13-7.05 238.18-5.25 239.9-4.23 241.63-3.2 243.83-3.2L243.83-3.2Q246.73-3.2 248.75-4.3 250.78-5.4 251.68-7.45L251.68-7.45 254.93-6.15Q253.43-3 250.58-1.33 247.73 0.35 243.93 0.35ZM236.03-14.45L251.38-14.45Q251.43-16.6 250.45-18.25 249.48-19.9 247.73-20.85 245.98-21.8 243.68-21.8L243.68-21.8Q241.68-21.8 240.03-20.85 238.38-19.9 237.3-18.23 236.23-16.55 236.03-14.45L236.03-14.45ZM287.97-17.25L298.32-35 302.77-35 289.97-13.45 289.97 0 285.97 0 285.97-13.4 273.17-35 277.62-35 287.97-17.25ZM315.37 0.35L315.37 0.35Q311.82 0.35 309.02-1.2 306.22-2.75 304.62-5.63 303.02-8.5 303.02-12.45L303.02-12.45Q303.02-16.45 304.65-19.35 306.27-22.25 309.1-23.8 311.92-25.35 315.47-25.35L315.47-25.35Q319.02-25.35 321.85-23.8 324.67-22.25 326.3-19.38 327.92-16.5 327.92-12.55L327.92-12.55Q327.92-8.55 326.27-5.65 324.62-2.75 321.77-1.2 318.92 0.35 315.37 0.35ZM315.32-3.2L315.32-3.2Q317.52-3.2 319.47-4.17 321.42-5.15 322.65-7.23 323.87-9.3 323.87-12.5L323.87-12.5Q323.87-15.75 322.67-17.8 321.47-19.85 319.55-20.83 317.62-21.8 315.42-21.8L315.42-21.8Q313.22-21.8 311.32-20.83 309.42-19.85 308.25-17.78 307.07-15.7 307.07-12.5L307.07-12.5Q307.07-9.25 308.22-7.2 309.37-5.15 311.25-4.17 313.12-3.2 315.32-3.2ZM354.52-25L354.52 0 351.12 0 350.87-3.6Q349.72-1.7 347.77-0.68 345.82 0.35 343.22 0.35L343.22 0.35Q340.32 0.35 338.17-0.85 336.02-2.05 334.84-4.45 333.67-6.85 333.67-10.5L333.67-10.5 333.67-25 337.37-25 337.37-10.9Q337.37-7.05 339.04-5.08 340.72-3.1 343.87-3.1L343.87-3.1Q347.07-3.1 348.94-5.18 350.82-7.25 350.82-11.45L350.82-11.45 350.82-25 354.52-25ZM362.17 0L362.17-25 365.62-25 365.82-21.35Q366.82-22.7 368.24-23.65 369.67-24.6 371.39-24.98 373.12-25.35 375.07-25L375.07-25 375.07-21.25Q372.97-21.65 371.29-21.25 369.62-20.85 368.42-19.75 367.22-18.65 366.57-16.98 365.92-15.3 365.92-13.1L365.92-13.1 365.92 0 362.17 0ZM394.56 0L394.56-35 417.51-35 417.51-31.5 398.56-31.5 398.56-19.55 412.81-19.55 412.81-16.05 398.56-16.05 398.56 0 394.56 0ZM431.11 0.35L431.11 0.35Q427.56 0.35 424.76-1.2 421.96-2.75 420.36-5.63 418.76-8.5 418.76-12.45L418.76-12.45Q418.76-16.45 420.38-19.35 422.01-22.25 424.83-23.8 427.66-25.35 431.21-25.35L431.21-25.35Q434.76-25.35 437.58-23.8 440.41-22.25 442.03-19.38 443.66-16.5 443.66-12.55L443.66-12.55Q443.66-8.55 442.01-5.65 440.36-2.75 437.51-1.2 434.66 0.35 431.11 0.35ZM431.06-3.2L431.06-3.2Q433.26-3.2 435.21-4.17 437.16-5.15 438.38-7.23 439.61-9.3 439.61-12.5L439.61-12.5Q439.61-15.75 438.41-17.8 437.21-19.85 435.28-20.83 433.36-21.8 431.16-21.8L431.16-21.8Q428.96-21.8 427.06-20.83 425.16-19.85 423.98-17.78 422.81-15.7 422.81-12.5L422.81-12.5Q422.81-9.25 423.96-7.2 425.11-5.15 426.98-4.17 428.86-3.2 431.06-3.2ZM460.61 0.35L460.61 0.35Q457.06 0.35 454.26-1.2 451.46-2.75 449.86-5.63 448.26-8.5 448.26-12.45L448.26-12.45Q448.26-16.45 449.88-19.35 451.51-22.25 454.33-23.8 457.16-25.35 460.71-25.35L460.71-25.35Q464.26-25.35 467.08-23.8 469.91-22.25 471.53-19.38 473.16-16.5 473.16-12.55L473.16-12.55Q473.16-8.55 471.51-5.65 469.86-2.75 467.01-1.2 464.16 0.35 460.61 0.35ZM460.56-3.2L460.56-3.2Q462.76-3.2 464.71-4.17 466.66-5.15 467.88-7.23 469.11-9.3 469.11-12.5L469.11-12.5Q469.11-15.75 467.91-17.8 466.71-19.85 464.78-20.83 462.86-21.8 460.66-21.8L460.66-21.8Q458.46-21.8 456.56-20.83 454.66-19.85 453.48-17.78 452.31-15.7 452.31-12.5L452.31-12.5Q452.31-9.25 453.46-7.2 454.61-5.15 456.48-4.17 458.36-3.2 460.56-3.2ZM498.6-19.95L498.6-19.95 498.2-19.9 498.2-36 501.95-36 501.95 0 498.5 0 498.25-4.65Q497.1-2.55 494.83-1.1 492.55 0.35 489.2 0.35L489.2 0.35Q485.75 0.35 483.18-1.23 480.6-2.8 479.18-5.7 477.75-8.6 477.75-12.5L477.75-12.5Q477.75-16.4 479.18-19.28 480.6-22.15 483.18-23.75 485.75-25.35 489.2-25.35L489.2-25.35Q492.75-25.35 495.1-23.8 497.45-22.25 498.6-19.95ZM481.8-12.5L481.8-12.5Q481.8-8.2 484-5.68 486.2-3.15 490-3.15L490-3.15Q492.35-3.15 494.2-4.25 496.05-5.35 497.13-7.45 498.2-9.55 498.2-12.5L498.2-12.5Q498.2-15.45 497.13-17.53 496.05-19.6 494.2-20.73 492.35-21.85 490-21.85L490-21.85Q486.25-21.85 484.03-19.33 481.8-16.8 481.8-12.5Z" opacity="1" transform="matrix(1,0,0,1,0,0)" fill="#ffffff" class="slogan-text-1" data-fill-palette-color="secondary" id="text-1"></path></svg></g></svg></g></svg></g></svg></g><g transform="matrix(1,0,0,1,102.44513604605591,0)"><svg viewBox="0 0 192.6073279078881 151.99368679498673" height="151.99368679498673" width="192.6073279078881"><g><svg xmlns="http://www.w3.org/2000/svg" xmlns:xlink="http://www.w3.org/1999/xlink" version="1.1" x="8" y="0" viewBox="0 13.813 100.144 86.187" enable-background="new 0 0 100 100" xml:space="preserve" id="icon-0" width="176.6073279078881" height="151.99368679498673" class="icon-icon-0" data-fill-palette-color="accent"><g fill="#e6b17e" data-fill-palette-color="accent"><polygon points="0,77.814 22.185,100 77.854,100 100.144,77.711  " fill="#ffffff" data-fill-palette-color="accent"></polygon><path d="M62.554 56.12L61.421 70.47 60.271 55.857C57.625 55.595 54.799 55.447 51.827 55.4L50.739 69.187 49.65 55.379C46.328 55.391 43.212 55.547 40.287 55.822L39.132 70.47 37.998 56.074C8.799 59.564 0 75.092 0 75.092H100.144S91.429 59.707 62.554 56.12" fill="#ffffff" data-fill-palette-color="accent"></path></g><path d="M50.244 29.826C54.977 35.235 57.316 43.597 52.352 48.561 56.843 37.451 45.024 35.56 45.024 25.868 45.969 16.058 52.116 13.813 52.116 13.813S45.279 24.153 50.244 29.826" fill="#ffffff" data-fill-palette-color="accent"></path></svg></g></svg></g><g><rect width="6.464337962791319" height="5.368374413289308" y="145.62531238169743" x="295.052463953944" fill="#ffffff" data-fill-palette-color="secondary"></rect><rect width="6.464337962791319" height="5.368374413289308" y="145.62531238169743" x="95.98079808326459" fill="#ffffff" data-fill-palette-color="secondary"></rect></g></svg></g><defs></defs></svg><rect width="332.58253047487176" height="247.2" fill="none" stroke="none" visibility="hidden"></rect></g></svg></g></svg>